<?xml version="1.0" standalone="no"?>
<!DOCTYPE svg PUBLIC "-//W3C//DTD SVG 1.1//EN" "http://www.w3.org/Graphics/SVG/1.1/DTD/svg11.dtd" >
<svg xmlns="http://www.w3.org/2000/svg" xmlns:xlink="http://www.w3.org/1999/xlink" version="1.1">
<metadata></metadata>
<defs>
<font id="pragati_narrowregular" horiz-adv-x="858" >
<font-face units-per-em="2048" ascent="1638" descent="-410" />
<missing-glyph horiz-adv-x="430" />
<glyph unicode="&#xfb01;" horiz-adv-x="770" d="M16 852v139h88v158q0 45 10 83.5t31.5 72t61 52.5t94.5 19q69 0 129 -22v-109h-82q-90 0 -90 -88v-166h172v-139h-172v-852h-154v852h-88zM524 0v991h154v-991h-154zM524 1176v186h154v-186h-154z" />
<glyph unicode="&#xfb02;" horiz-adv-x="770" d="M16 852v139h88v158q0 45 10 83.5t31.5 72t61 52.5t94.5 19q69 0 129 -22v-109h-82q-90 0 -90 -88v-166h172v-139h-172v-852h-154v852h-88zM524 0v1362h154v-1362h-154z" />
<glyph horiz-adv-x="0" />
<glyph horiz-adv-x="682" />
<glyph horiz-adv-x="0" />
<glyph unicode="&#xd;" horiz-adv-x="0" />
<glyph unicode=" "  horiz-adv-x="430" />
<glyph unicode="&#x09;" horiz-adv-x="430" />
<glyph unicode="&#xa0;" horiz-adv-x="430" />
<glyph unicode="!" horiz-adv-x="430" d="M113 1290h213q-4 -46 -12 -207.5t-19.5 -396.5t-18.5 -364h-116q-25 572 -47 968zM125 0v203h190v-203h-190z" />
<glyph unicode="&#x22;" horiz-adv-x="546" d="M70 1014v276h153v-276l-39 -248h-73zM319 1014v276h156v-276l-43 -248h-72z" />
<glyph unicode="#" d="M16 336v143h154l63 291h-143v145h176l88 396h142l-86 -396h168l90 396h141l-86 -396h113v-145h-146l-65 -291h133v-143h-166l-74 -336h-143l74 336h-168l-76 -336h-144l78 336h-123zM313 479h168l64 291h-168z" />
<glyph unicode="$" d="M100 418q0 12 0.5 21.5t1 15t0.5 6.5h154v-21q0 -149 125 -176v336q-47 16 -77 28.5t-68.5 36t-60.5 51t-38 70.5t-16 97q0 115 69 188t191 90v201h92v-201q122 -9 192 -85t70 -183q0 -7 -1 -21.5t-1 -15.5h-153v16q0 58 -25.5 100.5t-81.5 55.5v-297q51 -17 81 -28.5 t73 -36.5t67 -53.5t42 -75.5t18 -105q0 -142 -75.5 -217t-205.5 -86v-221h-92v221q-143 13 -212 94.5t-69 194.5zM276 893q0 -46 27 -75t78 -52v262q-57 -11 -81 -50t-24 -85zM473 262q55 8 90 46.5t35 103.5q0 57 -32 91.5t-93 63.5v-305z" />
<glyph unicode="%" horiz-adv-x="1372" d="M86 973q0 97 16 164t47.5 105.5t74.5 55.5t102 17q121 0 181 -77t60 -265t-60 -263t-181 -75t-180.5 75.5t-59.5 262.5zM215 961q0 -105 23.5 -160.5t87.5 -55.5q63 0 86.5 55.5t23.5 160.5v28q0 105 -23.5 160t-86.5 55q-64 0 -87.5 -55t-23.5 -160v-28zM233 0l789 1290 h135l-790 -1290h-134zM821 317q0 186 61 263t181 77q121 0 182.5 -77t61.5 -263q0 -127 -30.5 -204t-82 -106.5t-131.5 -29.5q-120 0 -181 77t-61 263zM952 303q0 -105 24 -159t87 -54q65 0 89 54t24 159v29q0 105 -24 159t-89 54q-63 0 -87 -54t-24 -159v-29z" />
<glyph unicode="&#x26;" horiz-adv-x="1030" d="M66 348q0 122 52 202.5t138 111.5v10q-79 44 -122.5 112.5t-43.5 176.5q0 169 106.5 261.5t284.5 92.5q173 0 282 -97t109 -257v-35h-151v18q0 115 -66 172.5t-176 57.5q-99 0 -162 -55t-63 -169q0 -108 57.5 -166.5t139.5 -58.5h96v-137h-90q-226 0 -226 -230 q0 -122 66 -180.5t182 -58.5q242 0 242 241v365h285v-139h-134v-221q0 -181 -104 -284.5t-301 -103.5q-179 0 -290 100t-111 271z" />
<glyph unicode="'" horiz-adv-x="296" d="M66 1014v276h153v-276l-39 -248h-74z" />
<glyph unicode="(" horiz-adv-x="514" d="M74 543q0 230 81 448t228 393h102q-112 -182 -182 -404.5t-70 -434.5q0 -211 70 -435t182 -407h-102q-148 176 -228.5 393t-80.5 447z" />
<glyph unicode=")" horiz-adv-x="514" d="M29 -297q111 182 180.5 406.5t69.5 435.5q0 212 -69.5 435t-180.5 404h100q149 -173 229 -391t80 -450t-80 -448.5t-229 -391.5h-100z" />
<glyph unicode="*" horiz-adv-x="600" d="M49 969l154 73l-154 70l64 111l139 -99l-19 166h132l-17 -164l137 97l64 -111l-154 -70l154 -73l-64 -111l-137 98l17 -168h-132l19 168l-139 -98z" />
<glyph unicode="+" horiz-adv-x="901" d="M82 401v160h289v402h157v-402h291v-160h-291v-401h-157v401h-289z" />
<glyph unicode="," horiz-adv-x="430" d="M121 0v203h188v-187l-90 -249h-98l76 233h-76z" />
<glyph unicode="-" horiz-adv-x="514" d="M18 416v184h476v-184h-476z" />
<glyph unicode="." horiz-adv-x="430" d="M121 0v203h188v-203h-188z" />
<glyph unicode="/" horiz-adv-x="430" d="M2 -92l297 1476h131l-293 -1476h-135z" />
<glyph unicode="0" d="M74 645q0 156 16 271.5t45 191.5t74 122.5t98 65.5t123 19q86 0 148.5 -31.5t110 -105.5t71.5 -207t24 -326q0 -155 -16 -270.5t-45 -191t-74 -122t-98 -65.5t-121 -19q-70 0 -123 19t-98 65.5t-74 122t-45 191t-16 270.5zM233 580q0 -107 9 -187t30.5 -145t61 -99 t96.5 -34q56 0 95 34t60.5 99t30.5 145t9 187v131q0 107 -9 187.5t-30.5 145.5t-60.5 98.5t-95 33.5q-57 0 -96.5 -33.5t-61 -98.5t-30.5 -145.5t-9 -187.5v-131z" />
<glyph unicode="1" d="M92 1057v98q83 8 199.5 46t202.5 89h61v-1151h283v-139h-744v139h307v918h-309z" />
<glyph unicode="2" d="M72 0v23q0 143 92 282q39 57 104 129.5t119.5 131.5t106.5 126t82 140.5t30 148.5q0 35 -8.5 66.5t-27 60.5t-54.5 46t-86 17q-92 0 -135 -68t-43 -179v-76h-162q-4 29 -4 74q0 101 28 178.5t76.5 123.5t109.5 68.5t132 22.5q72 0 132 -19.5t107 -59t73 -105t26 -152.5 q0 -91 -34 -179.5t-91.5 -164.5t-117 -141t-126 -139.5t-102.5 -131.5q-25 -31 -35 -65h512v-158h-704z" />
<glyph unicode="3" d="M66 365v16h157v-21q0 -120 50 -182.5t145 -62.5q96 0 151.5 60t55.5 183q0 230 -211 230h-109v137h111q80 0 133 58t53 167q0 114 -49.5 170t-126.5 56q-82 0 -130 -58t-48 -174v-18h-158v35q0 160 92.5 257t241.5 97q154 0 245 -92.5t91 -261.5q0 -109 -44 -177.5 t-124 -111.5v-10q87 -31 139.5 -111t52.5 -203q0 -171 -98 -271t-256 -100q-174 0 -269 104t-95 284z" />
<glyph unicode="4" d="M39 317v142q103 190 191.5 415t142.5 441h155q-47 -232 -160.5 -492.5t-185.5 -365.5h355v405q34 80 79 260h74v-665h131v-140h-131v-317h-153v317h-498z" />
<glyph unicode="5" d="M74 401h159q0 -130 58 -209t145 -79q90 0 145.5 79t55.5 230q0 132 -51 205t-137 73q-60 0 -110.5 -40t-80.5 -109l-147 27l43 712h587v-157h-454l-23 -394q96 101 228 101q133 0 219 -107.5t86 -310.5q0 -210 -97 -327.5t-264 -117.5q-164 0 -263 114.5t-99 309.5z" />
<glyph unicode="6" d="M74 608q0 160 16 280.5t45.5 201.5t75 131.5t100.5 72t125 21.5q158 0 236 -115t78 -305h-158q0 136 -40.5 208.5t-121.5 72.5q-58 0 -97 -33t-60.5 -99t-30.5 -150.5t-9 -203.5q87 121 230 121q105 0 179 -56.5t108 -148.5t34 -211q0 -189 -95 -303.5t-243 -114.5 q-71 0 -127.5 19.5t-103 65t-77 117.5t-47.5 179.5t-17 249.5zM248 395q0 -123 48 -201.5t140 -78.5q94 0 141.5 78.5t47.5 201.5t-47.5 202t-141.5 79q-92 0 -140 -79t-48 -202z" />
<glyph unicode="7" d="M61 1133v157h736v-98q-400 -609 -400 -1096v-96h-174q0 528 379 1133h-541z" />
<glyph unicode="8" d="M74 354q0 228 168 308q-68 47 -104 123.5t-36 168.5q0 102 36 182t111.5 129.5t180.5 49.5q155 0 240.5 -102t85.5 -259q0 -92 -36 -168.5t-104 -123.5q168 -80 168 -308q0 -80 -20.5 -146.5t-62 -119t-111 -82t-160.5 -29.5q-92 0 -161.5 29.5t-111.5 82t-62.5 119 t-20.5 146.5zM233 354q0 -112 51 -175.5t146 -63.5q94 0 144.5 63.5t50.5 175.5q0 111 -50.5 174.5t-144.5 63.5q-95 0 -146 -63.5t-51 -174.5zM256 952q0 -104 47 -163.5t127 -59.5q79 0 126.5 60t47.5 163q0 104 -47.5 164t-126.5 60q-80 0 -127 -59.5t-47 -164.5z" />
<glyph unicode="9" d="M74 897q0 190 95.5 304t244.5 114q89 0 155 -32t115.5 -104t74.5 -195.5t25 -299.5q0 -159 -16 -280t-45 -202t-73.5 -131.5t-98 -72t-121.5 -21.5q-110 0 -183.5 56t-105.5 148t-32 216h157q0 -136 42.5 -209t127.5 -73q45 0 78 22.5t54 62t33.5 102t17.5 133.5t6 165 q-90 -121 -228 -121q-157 0 -240 117t-83 301zM233 897q0 -124 47.5 -202.5t141.5 -78.5q92 0 140 78.5t48 202.5q0 123 -48 201t-140 78q-94 0 -141.5 -78t-47.5 -201z" />
<glyph unicode=":" horiz-adv-x="430" d="M121 0v203h188v-203h-188zM121 788v203h188v-203h-188z" />
<glyph unicode=";" horiz-adv-x="430" d="M121 0v203h188v-187l-90 -249h-98l76 233h-76zM121 788v203h188v-203h-188z" />
<glyph unicode="&#x3c;" horiz-adv-x="901" d="M84 377v201l735 372v-170l-586 -301l586 -303v-168z" />
<glyph unicode="=" horiz-adv-x="901" d="M82 201v155h737v-155h-737zM82 598v158h737v-158h-737z" />
<glyph unicode="&#x3e;" horiz-adv-x="901" d="M84 8v168l586 303l-586 301v170l735 -372v-201z" />
<glyph unicode="?" d="M82 930q0 167 94 276t268 109q140 0 233 -94.5t93 -241.5q0 -85 -18 -151.5t-45 -105.5t-59 -76t-59 -64.5t-45 -70.5t-18 -95v-78h-164v106q0 69 24.5 125t59 95t69 77.5t59 93.5t24.5 123q0 27 -5.5 56.5t-21 67.5t-52 62.5t-89.5 24.5q-46 0 -80 -18.5t-52 -45.5 t-29 -64t-14 -66t-3 -60l2 -51h-166q-6 43 -6 66zM350 0v203h187v-203h-187z" />
<glyph unicode="@" horiz-adv-x="1564" d="M86 494q0 176 37.5 316t103 233.5t157.5 155.5t195.5 89t223.5 27q119 0 220 -25t186.5 -80t145 -137t93 -201t33.5 -268q0 -123 -23 -222.5t-59.5 -161.5t-84.5 -103.5t-95 -58.5t-95 -17q-77 0 -116 30.5t-52 86.5h-6q-37 -55 -95 -86t-126 -31q-30 0 -58.5 5t-62 21 t-57.5 42t-40.5 73t-16.5 109q0 73 23 127t61.5 87t98.5 53t124.5 27t148.5 7v117q0 72 -32 109.5t-113 37.5q-72 0 -103.5 -40.5t-31.5 -102.5v-21h-142v39q0 121 78.5 185.5t210.5 64.5q135 0 202.5 -65t67.5 -187v-496q0 -69 66 -69q39 0 75 21t70 68t54 138t20 215 q0 156 -41.5 273.5t-118 189t-179 106.5t-230.5 35q-288 0 -448 -181t-160 -537q0 -340 134.5 -508t413.5 -168q63 0 151.5 18t131.5 43v-113q-50 -23 -135.5 -37t-147.5 -14q-316 0 -486.5 191.5t-170.5 589.5zM641 301q0 -74 30 -105.5t91 -31.5q75 0 131.5 58t56.5 163 v84q-154 0 -231.5 -35t-77.5 -133z" />
<glyph unicode="A" horiz-adv-x="1030" d="M-2 0l412 1290h213l407 -1290h-178l-88 287h-512l-88 -287h-166zM299 438h418l-174 576q-6 19 -14 55t-13 62l-4 26h-8q-17 -102 -29 -143z" />
<glyph unicode="B" horiz-adv-x="1030" d="M121 0v1290h489q146 0 241 -87t95 -228q0 -107 -56 -187t-142 -110v-6q99 -32 163 -120t64 -210q0 -158 -105 -250t-260 -92h-489zM287 152h303q94 0 153.5 56t59.5 157q0 91 -62.5 156t-162.5 65h-291v-434zM287 737h276q93 0 150 59t57 144q0 99 -52.5 150t-142.5 51 h-288v-404z" />
<glyph unicode="C" horiz-adv-x="1114" d="M78 645q0 670 510 670q205 0 326.5 -125t121.5 -367h-168q0 166 -75 252t-205 86q-336 0 -336 -469v-94q0 -469 336 -469q133 0 208.5 84.5t75.5 249.5h164q0 -242 -121 -364t-327 -122q-253 0 -381.5 167.5t-128.5 500.5z" />
<glyph unicode="D" horiz-adv-x="1114" d="M131 0v1290h401q233 0 361.5 -159.5t128.5 -466.5q0 -326 -128.5 -495t-361.5 -169h-401zM299 152h219q157 0 244.5 117.5t87.5 348.5v93q0 213 -87.5 321.5t-244.5 108.5h-219v-989z" />
<glyph unicode="E" horiz-adv-x="1030" d="M131 0v1290h797v-149h-629v-404h547v-151h-547v-434h641v-152h-809z" />
<glyph unicode="F" horiz-adv-x="944" d="M131 0v1290h746v-149h-578v-418h510v-150h-510v-573h-168z" />
<glyph unicode="G" horiz-adv-x="1202" d="M92 645q0 332 135 501t381 169q212 0 341.5 -118.5t129.5 -344.5h-170q0 155 -80.5 232t-220.5 77q-162 0 -252 -118.5t-90 -350.5v-94q0 -234 85 -351.5t249 -117.5q159 0 234 91t75 276v32h-334v146h504v-674h-110l-35 143q-112 -166 -334 -166q-247 0 -377.5 168.5 t-130.5 499.5z" />
<glyph unicode="H" horiz-adv-x="1114" d="M131 0v1290h168v-553h518v553h164v-1290h-164v586h-518v-586h-168z" />
<glyph unicode="I" horiz-adv-x="430" d="M131 0v1290h168v-1290h-168z" />
<glyph unicode="J" horiz-adv-x="770" d="M23 307v84h167v-92q0 -83 38 -126.5t108 -43.5q71 0 109 43.5t38 126.5v991h166v-983q0 -160 -81.5 -245t-231.5 -85q-149 0 -231 85t-82 245z" />
<glyph unicode="K" horiz-adv-x="1030" d="M131 0v1290h168v-682l510 682h186l-389 -520l402 -770h-189l-315 631l-205 -230v-401h-168z" />
<glyph unicode="L" d="M131 0v1290h168v-1138h524v-152h-692z" />
<glyph unicode="M" horiz-adv-x="1286" d="M117 0v1290h252l227 -846q12 -42 23 -114.5t17 -123.5l5 -52h6q16 200 43 290l228 846h251v-1290h-165v938l12 199h-6q-32 -153 -45 -199l-258 -938h-146l-260 938q-8 27 -39 199h-8q12 -162 12 -199v-938h-149z" />
<glyph unicode="N" horiz-adv-x="1114" d="M131 0v1290h143l480 -811q14 -22 34.5 -65t33.5 -75l14 -32l4 2q-4 129 -4 170v811h145v-1290h-135l-484 821q-15 24 -35.5 68t-34.5 76l-13 32l-7 -2q9 -121 9 -174v-821h-150z" />
<glyph unicode="O" horiz-adv-x="1202" d="M92 645q0 332 133 501t375 169q243 0 376.5 -169t133.5 -501q0 -329 -134 -498.5t-376 -169.5t-375 169.5t-133 498.5zM266 598q0 -232 87.5 -350.5t246.5 -118.5t247.5 118.5t88.5 350.5v94q0 232 -88.5 350.5t-247.5 118.5t-246.5 -118.5t-87.5 -350.5v-94z" />
<glyph unicode="P" horiz-adv-x="1030" d="M131 0v1290h461q187 0 287 -101.5t100 -273.5q0 -173 -104 -278t-283 -105h-293v-532h-168zM299 684h289q99 0 158 63t59 168q0 106 -56.5 166t-160.5 60h-289v-457z" />
<glyph unicode="Q" horiz-adv-x="1202" d="M92 645q0 332 133 501t375 169q243 0 376.5 -169t133.5 -501q0 -253 -79 -412.5t-228 -220.5l266 -245h-221l-223 210h-25q-242 0 -375 169.5t-133 498.5zM266 598q0 -232 87.5 -350.5t246.5 -118.5t247.5 118.5t88.5 350.5v94q0 232 -88.5 350.5t-247.5 118.5 t-246.5 -118.5t-87.5 -350.5v-94z" />
<glyph unicode="R" horiz-adv-x="1114" d="M131 0v1290h520q186 0 285.5 -96t99.5 -260q0 -120 -60.5 -208.5t-168.5 -125.5l260 -600h-182l-242 571h-344v-571h-168zM299 723h346q100 0 159.5 57t59.5 154q0 98 -56.5 152.5t-162.5 54.5h-346v-418z" />
<glyph unicode="S" horiz-adv-x="1030" d="M76 365q0 8 1 22t1 16h174l-2 -38q0 -116 70 -176t184 -60q131 0 201.5 55.5t70.5 159.5q0 52 -23 92t-62 65.5t-89.5 46t-106 38t-111 37t-106 48.5t-89.5 66.5t-62 96t-23 133.5q0 116 56 196t146.5 116t207.5 36q87 0 158.5 -21t127.5 -63.5t87 -114t31 -166.5v-22 h-170v28q0 95 -65 150t-165 55q-108 0 -173.5 -45t-65.5 -135q0 -49 23 -86.5t62 -62t89 -44.5t105.5 -37.5t111.5 -37.5t106 -49t89 -66t62 -94.5t23 -130.5q0 -105 -33 -183t-93 -124t-137.5 -67.5t-174.5 -21.5q-92 0 -168.5 21.5t-137.5 66t-95.5 121t-34.5 179.5z" />
<glyph unicode="T" horiz-adv-x="944" d="M37 1141v149h868v-149h-352v-1141h-166v1141h-350z" />
<glyph unicode="U" horiz-adv-x="1114" d="M131 420v870h168v-878q0 -137 67.5 -210t190.5 -73q124 0 192 73t68 210v878h164v-870q0 -215 -111.5 -329t-312.5 -114q-202 0 -314 113.5t-112 329.5z" />
<glyph unicode="V" horiz-adv-x="1030" d="M14 1290h185l319 -1108h8l328 1108h160l-391 -1290h-213z" />
<glyph unicode="W" horiz-adv-x="1456" d="M18 1290h177l196 -893q8 -33 18 -89.5t15 -97.5l6 -40h8q13 114 33 227l150 893h229l160 -893l34 -227h7q21 145 39 227l198 893h150l-299 -1290h-215l-158 874l-35 261h-8q-21 -173 -35 -261l-156 -874h-215z" />
<glyph unicode="X" horiz-adv-x="1030" d="M8 0l412 672l-375 618h197l278 -461l283 461h178l-375 -604l416 -686h-195l-319 526l-324 -526h-176z" />
<glyph unicode="Y" horiz-adv-x="1030" d="M14 1290h185l327 -598h6l322 598h160l-416 -755v-535h-166v535z" />
<glyph unicode="Z" horiz-adv-x="944" d="M39 0v72l612 1069h-575v149h813v-69l-617 -1069h629v-152h-862z" />
<glyph unicode="[" horiz-adv-x="430" d="M92 -303v1687h299v-122h-158v-1442h158v-123h-299z" />
<glyph unicode="\" horiz-adv-x="430" d="M2 1384h133l295 -1476h-133z" />
<glyph unicode="]" horiz-adv-x="430" d="M39 -180h156v1442h-156v122h297v-1687h-297v123z" />
<glyph unicode="^" horiz-adv-x="724" d="M8 553l256 737h201l258 -737h-170l-188 594l-189 -594h-168z" />
<glyph unicode="_" d="M0 -135h856v-98h-856v98z" />
<glyph unicode="`" horiz-adv-x="514" d="M51 1354l2 8h168l162 -250h-129z" />
<glyph unicode="a" d="M63 256q0 80 25 139t67.5 95.5t108.5 59t137.5 30.5t163.5 8v127q0 78 -33.5 118.5t-121.5 40.5q-82 0 -118 -44t-36 -109v-25h-152q-2 10 -2 43q0 130 87.5 202.5t230.5 72.5q149 0 225 -72t76 -205v-557q0 -32 14.5 -48.5t34.5 -16.5h64v-107q-40 -22 -103 -22 q-61 0 -102.5 32.5t-53.5 87.5h-10q-38 -62 -100.5 -95.5t-140.5 -33.5q-34 0 -65.5 5.5t-68.5 24t-64 47.5t-45 81t-18 121zM225 266q0 -82 33 -116.5t102 -34.5q81 0 143 65t62 180v89q-82 0 -139 -7t-105 -26.5t-72 -56.5t-24 -93z" />
<glyph unicode="b" d="M113 0v1362h155v-465h8q26 54 82.5 85.5t128.5 31.5q131 0 214 -130.5t83 -387.5q0 -262 -81 -390.5t-226 -128.5q-146 0 -217 138h-8l-23 -115h-116zM268 461q0 -346 176 -346q91 0 135 81.5t44 264.5v69q0 182 -44 263t-135 81q-176 0 -176 -350v-63z" />
<glyph unicode="c" horiz-adv-x="770" d="M68 494q0 268 82.5 394t257.5 126q157 0 229 -98t72 -291h-160q0 133 -30.5 191t-110.5 58q-92 0 -135.5 -85.5t-43.5 -258.5v-69q0 -174 43 -260t136 -86q81 0 115 62t34 190h152q0 -80 -17 -148.5t-51.5 -123.5t-94 -86.5t-138.5 -31.5q-176 0 -258 125.5t-82 391.5z " />
<glyph unicode="d" d="M74 496q0 257 83 387.5t214 130.5q72 0 128.5 -31.5t82.5 -85.5h10v465h153v-1362h-116l-21 115h-10q-71 -138 -217 -138q-145 0 -226 128.5t-81 390.5zM236 461q0 -182 44 -264t134 -82q178 0 178 346v63q0 350 -178 350q-90 0 -134 -81t-44 -263v-69z" />
<glyph unicode="e" d="M78 494q0 266 92.5 393t280.5 127q167 0 247 -110t80 -357v-98h-536q2 -172 54.5 -253t162.5 -81q73 0 119.5 60.5t46.5 160.5h153q0 -164 -89.5 -261.5t-233.5 -97.5q-190 0 -283.5 123.5t-93.5 393.5zM244 588h372q0 286 -165 286q-99 0 -148.5 -70.5t-58.5 -215.5z " />
<glyph unicode="f" horiz-adv-x="430" d="M16 852v139h88v158q0 45 10 83.5t31.5 72t61 52.5t94.5 19q69 0 129 -22v-109h-82q-90 0 -90 -88v-166h172v-139h-172v-852h-154v852h-88z" />
<glyph unicode="g" d="M23 -106q0 72 35 128.5t96 81.5q-38 25 -60 65t-22 83q0 59 37 103.5t102 68.5q-115 91 -115 256q0 155 86.5 244.5t237.5 89.5q77 0 143 -37q60 32 87 75.5t36 98.5h133q0 -91 -44 -154.5t-120 -83.5q88 -95 88 -233q0 -153 -85 -241.5t-230 -90.5h-104 q-38 0 -64.5 -26.5t-26.5 -63.5q0 -36 27 -62t64 -26h282q104 0 169 -67t65 -164q0 -123 -76.5 -202t-214.5 -79h-281q-117 0 -181 67t-64 169zM178 -92q0 -50 30.5 -83.5t86.5 -33.5h272q49 0 83 34.5t34 82.5q0 50 -30.5 82.5t-86.5 32.5h-272q-57 0 -87 -32.5t-30 -82.5z M252 680q0 -100 42 -152.5t124 -52.5t126 54t44 151q0 99 -43.5 152t-126.5 53q-80 0 -123 -54.5t-43 -150.5z" />
<glyph unicode="h" d="M113 0v1362h155v-475h11q74 127 221 127q118 0 181.5 -71t63.5 -230v-713h-153v702q0 97 -36 134.5t-105 37.5q-76 0 -129.5 -73t-53.5 -197v-604h-155z" />
<glyph unicode="i" horiz-adv-x="342" d="M94 0v991h156v-991h-156zM94 1176v186h156v-186h-156z" />
<glyph unicode="j" horiz-adv-x="342" d="M-76 -213h82q43 0 65.5 24t22.5 68v1112h156v-1106q0 -45 -10 -83.5t-32 -72t-61.5 -52.5t-93.5 -19q-70 0 -129 23v106zM94 1176v186h156v-186h-156z" />
<glyph unicode="k" horiz-adv-x="770" d="M113 0v1362h155v-832l320 461h170l-291 -407l307 -584h-176l-225 451l-105 -115v-336h-155z" />
<glyph unicode="l" horiz-adv-x="342" d="M94 0v1362h156v-1362h-156z" />
<glyph unicode="m" horiz-adv-x="1286" d="M113 0v991h116l23 -117h10q76 140 225 140q158 0 211 -146q39 70 104 108t138 38q234 0 234 -301v-713h-156v702q0 96 -33 134t-94 38q-72 0 -120 -72.5t-48 -197.5v-604h-156v702q0 96 -34 134t-95 38q-71 0 -120.5 -73t-49.5 -197v-604h-155z" />
<glyph unicode="n" d="M113 0v991h116l23 -117h10q79 140 238 140q118 0 181.5 -71t63.5 -230v-713h-153v702q0 97 -36 134.5t-105 37.5q-76 0 -129.5 -73t-53.5 -197v-604h-155z" />
<glyph unicode="o" d="M74 494q0 520 356 520q354 0 354 -520q0 -517 -354 -517q-356 0 -356 517zM236 461q0 -346 194 -346q193 0 193 346v69q0 344 -193 344q-194 0 -194 -344v-69z" />
<glyph unicode="p" d="M113 -326v1317h116l23 -117h8q35 67 91.5 103.5t125.5 36.5q145 0 226 -128.5t81 -391.5q0 -256 -83 -386.5t-214 -130.5q-72 0 -128.5 29.5t-82.5 81.5h-8v-414h-155zM268 461q0 -346 176 -346q91 0 135 81.5t44 264.5v69q0 182 -44 263t-135 81q-176 0 -176 -344v-69z " />
<glyph unicode="q" d="M74 494q0 263 81 391.5t226 128.5q69 0 125.5 -36.5t91.5 -103.5h10l21 117h116v-1317h-153v414h-10q-26 -52 -82.5 -81.5t-128.5 -29.5q-131 0 -214 130.5t-83 386.5zM236 461q0 -182 44 -264t134 -82q178 0 178 346v69q0 344 -178 344q-90 0 -134 -81t-44 -263v-69z " />
<glyph unicode="r" horiz-adv-x="514" d="M113 0v991h116l23 -131h10q47 154 168 154q18 0 36 -4t27 -8l9 -3v-161h-51q-80 0 -131.5 -55.5t-51.5 -178.5v-604h-155z" />
<glyph unicode="s" horiz-adv-x="770" d="M61 268q0 12 0.5 21t1 14t0.5 6h162v-20q0 -88 45.5 -132t116.5 -44q64 0 107 39t43 108q0 50 -25 85.5t-64.5 55.5t-87.5 36.5t-96.5 37.5t-88 50t-64.5 81.5t-25 124.5q0 130 83 206.5t224 76.5q133 0 209 -78.5t76 -194.5q0 -7 -1 -21t-1 -15h-160v18q0 66 -32.5 110 t-104.5 44q-39 0 -67 -13t-41.5 -35t-19 -43t-5.5 -45q0 -43 25 -73t64.5 -47.5t87.5 -33t96 -37.5t87.5 -52t64.5 -85t25 -130q0 -153 -85.5 -229.5t-229.5 -76.5q-82 0 -145.5 24.5t-100.5 66t-55.5 92.5t-18.5 108z" />
<glyph unicode="t" horiz-adv-x="430" d="M25 852v139h86l34 275h121v-275h131v-139h-131v-647q0 -43 22.5 -66.5t65.5 -23.5h43v-107q-41 -26 -110 -26q-48 0 -83.5 19t-55 52.5t-28.5 72t-9 83.5v643h-86z" />
<glyph unicode="u" d="M113 276v715h155v-704q0 -96 36 -134t104 -38q76 0 130 73.5t54 196.5v606h153v-991h-116l-21 115h-12q-75 -138 -238 -138q-118 0 -181.5 70.5t-63.5 228.5z" />
<glyph unicode="v" horiz-adv-x="770" d="M18 991h170l136 -508q14 -47 35.5 -132.5t29.5 -114.5h8q14 59 66 243l135 512h156l-283 -991h-168z" />
<glyph unicode="w" horiz-adv-x="1114" d="M2 991h168l127 -559q8 -36 17.5 -94t14.5 -98l5 -41h8q15 133 31 233l100 559h178l103 -559l30 -233h7q13 120 40 233l123 559h158l-248 -991h-172l-102 565q-8 45 -15 102t-11 91l-3 35h-10q-11 -124 -29 -228l-102 -565h-170z" />
<glyph unicode="x" horiz-adv-x="770" d="M10 0l291 500l-278 491h188l178 -340l186 340h173l-277 -477l289 -514h-185l-194 365l-201 -365h-170z" />
<glyph unicode="y" horiz-adv-x="770" d="M18 991h170l144 -510q14 -45 38.5 -132t37.5 -128h6q11 47 32.5 132.5t30.5 125.5l121 512h156l-252 -940q-23 -87 -50 -154t-65.5 -123t-90 -86t-114.5 -30q-64 0 -110 14v109h53q149 0 197 219z" />
<glyph unicode="z" horiz-adv-x="770" d="M49 0v72l434 780h-405v139h618v-73l-436 -779h463v-139h-674z" />
<glyph unicode="{" horiz-adv-x="516" d="M39 463v160q59 0 101 26.5t42 85.5v371q0 69 16 119.5t42.5 80.5t66.5 48t80 24t92 6v-108q-149 0 -149 -133q0 -76 -6 -218.5t-7 -170.5q-3 -100 -41 -151.5t-124 -51.5v-19q86 0 124 -50.5t41 -151.5q1 -26 7 -168.5t6 -218.5q0 -136 149 -136v-108q-52 0 -92 6 t-80 24.5t-66.5 48.5t-42.5 81.5t-16 120.5v370q0 58 -42 85.5t-101 27.5z" />
<glyph unicode="|" horiz-adv-x="401" d="M125 -326v1688h149v-1688h-149z" />
<glyph unicode="}" horiz-adv-x="516" d="M39 -193q149 0 149 136q0 103 13 387q2 101 40 151.5t124 50.5v19q-86 0 -124 51.5t-40 151.5q-13 288 -13 389q0 133 -149 133v108q51 0 91 -6t79 -24t65 -48t42 -80.5t16 -119.5v-371q0 -59 43.5 -85.5t103.5 -26.5v-160q-59 0 -103 -27.5t-44 -85.5v-370 q0 -86 -23 -144t-66 -86.5t-91 -39.5t-113 -11v108z" />
<glyph unicode="~" horiz-adv-x="901" d="M66 397v174q3 6 9 15t26.5 32.5t44 41.5t62 32.5t79.5 14.5q40 0 84.5 -18t78.5 -39.5t79 -39.5t85 -18q36 0 72 14.5t62 35t46.5 40.5t31.5 34l10 15v-174q-3 -6 -9 -15t-27 -32.5t-44.5 -41.5t-62 -33t-79.5 -15q-40 0 -84 18t-78 39.5t-79 39.5t-86 18q-36 0 -72 -14 t-62 -34.5t-46.5 -41t-30.5 -34.5z" />
<glyph unicode="&#xa1;" horiz-adv-x="514" d="M188 -301q13 224 45 971h119q42 -896 49 -971h-213zM203 788v203h186v-203h-186z" />
<glyph unicode="&#xa2;" d="M90 645q0 247 74.5 373t230.5 143v201h92v-201q146 -13 212.5 -109.5t66.5 -277.5h-160q0 116 -26.5 175.5t-92.5 72.5v-754q67 13 97 75.5t30 174.5h152q0 -158 -68.5 -265.5t-210.5 -123.5v-221h-92v221q-156 19 -230.5 144t-74.5 372zM252 608q0 -294 143 -338v748 q-143 -36 -143 -336v-74z" />
<glyph unicode="&#xa3;" d="M37 573v134h133v233q0 185 79 280t226 95q303 0 303 -365v-26h-153v30q0 222 -150 222q-147 0 -147 -207v-262h250v-134h-252l-17 -423h469v-150h-721v150h113v423h-133z" />
<glyph unicode="&#xa4;" d="M-6 301l94 90q-68 114 -68 252q0 134 68 254l-94 92l92 90l78 -80q114 111 266 111q148 0 262 -111l82 80l90 -90l-94 -92q68 -120 68 -254q0 -138 -68 -252l94 -90l-90 -92l-82 80q-112 -109 -262 -109q-152 0 -264 109l-80 -80zM150 643q0 -137 81 -234.5t199 -97.5 q115 0 196 97.5t81 234.5q0 141 -80.5 238.5t-196.5 97.5q-118 0 -199 -97.5t-81 -238.5z" />
<glyph unicode="&#xa5;" d="M4 1290h178l256 -551h8l250 551h156l-281 -596h240v-121h-299v-133h299v-123h-299v-317h-164v317h-301v123h301v133h-301v121h240z" />
<glyph unicode="&#xa6;" horiz-adv-x="401" d="M125 -326v715h149v-715h-149zM125 645v717h149v-717h-149z" />
<glyph unicode="&#xa7;" d="M127 522q0 84 38.5 149t94.5 103q-113 98 -113 256q0 134 81.5 209.5t228.5 75.5q132 0 207 -78t75 -193v-36h-161v16q0 66 -33 110t-105 44q-51 0 -82.5 -23.5t-41 -51.5t-9.5 -59q0 -57 25 -101.5t64.5 -74t87.5 -56.5t96.5 -58t88 -68.5t64.5 -98t25 -138.5 q0 -84 -37.5 -148t-93.5 -104q112 -101 112 -256q0 -133 -81 -208t-228 -75q-132 0 -207.5 77.5t-75.5 192.5q0 8 1.5 21t1.5 14h159v-16q0 -66 32 -110t105 -44q71 0 102.5 42t31.5 93q0 57 -25 101t-65 73.5t-88 56.5t-96.5 58t-88.5 69t-65 98.5t-25 137.5zM279 561 q0 -36 7 -66.5t24 -56t32.5 -44.5t45 -40t48 -33t54.5 -33t53 -32q65 52 65 156q0 35 -7 65.5t-24.5 56t-32 43.5t-45.5 39.5t-48 32.5t-55.5 33t-53.5 31q-63 -47 -63 -152z" />
<glyph unicode="&#xa8;" horiz-adv-x="514" d="M35 1182v180h164v-180h-164zM317 1182v180h162v-180h-162z" />
<glyph unicode="&#xa9;" horiz-adv-x="1136" d="M41 645q0 308 140.5 489t387.5 181q246 0 387.5 -181t141.5 -489t-141.5 -488t-387.5 -180q-247 0 -387.5 180t-140.5 488zM125 645q0 -264 120 -421.5t324 -157.5t323.5 157.5t119.5 421.5q0 266 -119 423t-324 157t-324.5 -157t-119.5 -423zM272 655q0 396 301 396 q120 0 192.5 -74t72.5 -215h-109q0 94 -41.5 142t-114.5 48q-190 0 -190 -266v-57q0 -269 190 -269q74 0 117 48t43 139h105q0 -141 -72 -213t-193 -72q-301 0 -301 393z" />
<glyph unicode="&#xaa;" horiz-adv-x="571" d="M39 870q0 69 24 115.5t72 71t104.5 34t135.5 9.5v80q0 51 -22.5 78.5t-78.5 27.5q-51 0 -75.5 -30.5t-24.5 -73.5v-19h-111v31q0 92 59.5 141t158.5 49q101 0 152.5 -49t51.5 -141v-373q0 -39 33 -39h43v-77q-24 -17 -72 -17q-40 0 -68.5 22t-39.5 60q-26 -42 -69 -65 t-95 -23q-30 0 -57 7t-56.5 25t-47 58t-17.5 98zM154 877q0 -52 21.5 -73.5t66.5 -21.5q51 0 92 43t41 117v57q-109 0 -165 -25.5t-56 -96.5z" />
<glyph unicode="&#xab;" d="M102 614l265 377h133l-213 -377l213 -378h-133zM385 614l268 377h133l-211 -377l211 -378h-133z" />
<glyph unicode="&#xac;" horiz-adv-x="901" d="M72 678v174h747v-481h-160v307h-587z" />
<glyph unicode="&#xad;" horiz-adv-x="514" d="M18 416v184h476v-184h-476z" />
<glyph unicode="&#xae;" horiz-adv-x="1136" d="M41 645q0 308 140.5 489t387.5 181q246 0 387.5 -181t141.5 -489t-141.5 -488t-387.5 -180q-247 0 -387.5 180t-140.5 488zM125 645q0 -264 120 -421.5t324 -157.5t323.5 157.5t119.5 421.5q0 266 -119 423t-324 157t-324.5 -157t-119.5 -423zM328 279v755h303 q84 0 138 -52t54 -136q0 -67 -33 -113.5t-85 -62.5v-11q13 -4 29 -15t37 -32.5t34.5 -61t13.5 -89.5q0 -75 12 -105.5t39 -40.5v-32q-22 -11 -53 -11q-108 0 -108 144q0 105 -36.5 148.5t-84.5 43.5h-154v-329h-106zM434 707h158q56 0 88.5 32t32.5 84q0 55 -31 84t-86 29 h-162v-229z" />
<glyph unicode="&#xaf;" horiz-adv-x="514" d="M23 1128v136h471v-136h-471z" />
<glyph unicode="&#xb0;" horiz-adv-x="753" d="M119 1061q0 106 74 180t180 74t180 -74t74 -180q0 -107 -74 -181.5t-180 -74.5t-180 74.5t-74 181.5zM219 1061q0 -65 45 -110.5t109 -45.5t108.5 45.5t44.5 110.5q0 62 -44.5 106.5t-108.5 44.5t-109 -44.5t-45 -106.5z" />
<glyph unicode="&#xb1;" horiz-adv-x="1032" d="M147 0v156h738v-156h-738zM147 584v157h289v346h156v-346h293v-157h-293v-346h-156v346h-289z" />
<glyph unicode="&#xb2;" horiz-adv-x="514" d="M45 606v31q0 68 31 125.5t88 122.5q13 14 43 45.5t44.5 47.5t37 44.5t33.5 50t19.5 49.5t8.5 56q0 39 -20 67.5t-66 28.5q-45 0 -67.5 -35t-22.5 -90v-59h-117q-4 32 -4 57q0 119 60.5 178t152.5 59q91 0 149 -51t58 -155q0 -44 -14.5 -87.5t-45 -88.5t-53.5 -73t-63 -73 q-5 -5 -27.5 -28t-32.5 -34t-24.5 -31t-22.5 -38h285v-119h-430z" />
<glyph unicode="&#xb3;" horiz-adv-x="514" d="M43 831v21h121v-25q0 -125 94 -125q48 0 76 30t28 91q0 119 -106 119h-66v107h68q40 0 66 28.5t26 83.5q0 57 -24.5 86t-61.5 29q-39 0 -64.5 -30t-25.5 -87v-26h-117v34q0 98 57 157.5t148 59.5q94 0 150.5 -57.5t56.5 -159.5q0 -111 -90 -168q45 -25 72.5 -71 t27.5 -109q0 -104 -59 -164.5t-154 -60.5q-107 0 -165 63.5t-58 173.5z" />
<glyph unicode="&#xb4;" horiz-adv-x="514" d="M127 1112l162 250h172l2 -8l-205 -242h-131z" />
<glyph unicode="&#xb5;" d="M113 -326v1317h155v-723q0 -85 37 -119t103 -34q76 0 130 73.5t54 196.5v606h153v-991h-116l-21 115h-12q-75 -138 -238 -138q-50 0 -90 15v-318h-155z" />
<glyph unicode="&#xb6;" horiz-adv-x="829" d="M35 881q0 170 104.5 289.5t255.5 119.5h393v-114h-90v-1502h-123v1502h-100v-1502h-123v797q-137 17 -227 133.5t-90 276.5z" />
<glyph unicode="&#xb7;" horiz-adv-x="430" d="M119 543v209h190v-209h-190z" />
<glyph unicode="&#xb8;" horiz-adv-x="514" d="M68 -236h143q68 0 68 46q0 24 -14 34.5t-50 10.5h-61l24 165h105l-15 -88q68 -3 111 -32.5t43 -89.5q0 -45 -19 -77t-51 -47t-62.5 -21.5t-64.5 -6.5q-78 0 -157 14v92z" />
<glyph unicode="&#xb9;" horiz-adv-x="514" d="M72 1202v80q47 6 109.5 29.5t103.5 52.5h55v-649h139v-109h-405v109h149v487h-151z" />
<glyph unicode="&#xba;" horiz-adv-x="563" d="M41 1030q0 181 60 267.5t180 86.5q241 0 241 -354q0 -350 -241 -350q-240 0 -240 350zM156 1008q0 -228 125 -228q127 0 127 228v49q0 227 -127 227q-125 0 -125 -227v-49z" />
<glyph unicode="&#xbb;" d="M72 236l211 378l-211 377h133l268 -377l-268 -378h-133zM358 236l213 378l-213 377h134l264 -377l-264 -378h-134z" />
<glyph unicode="&#xbc;" horiz-adv-x="1288" d="M57 1128v82q45 6 108 29.5t105 50.5h56v-647h137v-108h-404v108h150v485h-152zM217 -23l782 1338h117l-782 -1338h-117zM733 180v99q125 230 195 499h119q-29 -130 -87 -271t-104 -220h160v174q52 141 65 209h52v-383h77v-107h-77v-180h-117v180h-283z" />
<glyph unicode="&#xbd;" horiz-adv-x="1288" d="M57 1128v82q45 6 108 29.5t105 50.5h56v-647h137v-108h-404v108h150v485h-152zM197 -23l782 1338h117l-781 -1338h-118zM778 0v31q0 72 34 133t95 125q7 7 35 37.5t36.5 40.5t30.5 36.5t30 41.5t20 38.5t16 45t4 44.5q0 38 -18.5 66.5t-63.5 28.5t-67.5 -35.5 t-22.5 -89.5v-60h-119q-2 33 -2 58q0 118 60 177.5t153 59.5q92 0 149.5 -50.5t57.5 -154.5q0 -45 -15 -90t-44.5 -88t-55 -73t-63.5 -70q-8 -9 -34.5 -38t-43.5 -50.5t-28 -44.5h286v-119h-430z" />
<glyph unicode="&#xbe;" horiz-adv-x="1288" d="M51 760v22h119v-26q0 -123 96 -123q47 0 75 30.5t28 90.5q0 116 -105 116h-65v109h67q40 0 66 29t26 86t-25 85.5t-63 28.5q-39 0 -63.5 -31t-24.5 -90v-24h-119v35q0 97 57.5 157t147.5 60q95 0 152 -57t57 -160q0 -112 -92 -168q46 -23 74 -69.5t28 -110.5 q0 -104 -59.5 -164t-155.5 -60q-106 0 -163.5 62.5t-57.5 171.5zM203 -23l780 1338h119l-783 -1338h-116zM733 180v99q125 230 195 499h119q-29 -130 -87 -271t-104 -220h160v174q52 141 65 209h52v-383h77v-107h-77v-180h-117v180h-283z" />
<glyph unicode="&#xbf;" horiz-adv-x="944" d="M131 4q0 96 25.5 169.5t61.5 118t72 83.5t61.5 88.5t25.5 111.5v76h164v-106q0 -60 -17.5 -110t-44 -83t-57.5 -69.5t-57.5 -69t-44 -82t-17.5 -108.5q0 -18 3 -39t14 -51.5t28.5 -53.5t51.5 -40t79 -17q44 0 76.5 18.5t50 45t28 63.5t13 65.5t2.5 59.5l-2 51h168 q4 -41 4 -66q0 -173 -90 -278t-262 -105q-146 0 -241 91.5t-95 236.5zM365 788v203h188v-203h-188z" />
<glyph unicode="&#xc0;" horiz-adv-x="1030" d="M-2 0l412 1290h213l407 -1290h-178l-88 287h-512l-88 -287h-166zM295 1657l2 6h168l162 -248h-131zM299 438h418l-174 576q-6 19 -14 55t-13 62l-4 26h-8q-17 -102 -29 -143z" />
<glyph unicode="&#xc1;" horiz-adv-x="1030" d="M-2 0l412 1290h213l407 -1290h-178l-88 287h-512l-88 -287h-166zM299 438h418l-174 576q-6 19 -14 55t-13 62l-4 26h-8q-17 -102 -29 -143zM403 1415l162 248h170l2 -6l-205 -242h-129z" />
<glyph unicode="&#xc2;" horiz-adv-x="1030" d="M-2 0l412 1290h213l407 -1290h-178l-88 287h-512l-88 -287h-166zM281 1405l161 256h148l160 -256h-152l-82 149l-86 -149h-149zM299 438h418l-174 576q-6 19 -14 55t-13 62l-4 26h-8q-17 -102 -29 -143z" />
<glyph unicode="&#xc3;" horiz-adv-x="1030" d="M-2 0l412 1290h213l407 -1290h-178l-88 287h-512l-88 -287h-166zM238 1468q0 46 15.5 88.5t53 74.5t90.5 32q42 0 112.5 -28.5t106.5 -28.5q56 0 64 57h108q0 -75 -40 -135t-119 -60q-42 0 -111 29t-104 29q-58 0 -64 -58h-112zM299 438h418l-174 576q-6 19 -14 55 t-13 62l-4 26h-8q-17 -102 -29 -143z" />
<glyph unicode="&#xc4;" horiz-adv-x="1030" d="M-2 0l412 1290h213l407 -1290h-178l-88 287h-512l-88 -287h-166zM291 1485v178h166v-178h-166zM299 438h418l-174 576q-6 19 -14 55t-13 62l-4 26h-8q-17 -102 -29 -143zM575 1485v178h164v-178h-164z" />
<glyph unicode="&#xc5;" horiz-adv-x="1030" d="M-2 0l412 1290h213l407 -1290h-178l-88 287h-512l-88 -287h-166zM299 438h418l-174 576q-6 19 -14 55t-13 62l-4 26h-8q-17 -102 -29 -143zM332 1542q0 75 53.5 127.5t128.5 52.5q77 0 128.5 -52.5t51.5 -127.5t-52 -127.5t-128 -52.5q-74 0 -128 52t-54 128zM418 1542 q0 -39 28.5 -67.5t67.5 -28.5q38 0 66 28t28 68t-28 68t-66 28q-39 0 -67.5 -28.5t-28.5 -67.5z" />
<glyph unicode="&#xc6;" horiz-adv-x="1544" d="M-2 0l528 1290h936v-149h-692l94 -404h516v-151h-481l98 -434h478v-152h-623l-64 287h-514l-110 -287h-166zM332 438h424l-127 584q-4 19 -10.5 57.5t-10.5 59.5h-8q-25 -81 -39 -117z" />
<glyph unicode="&#xc7;" horiz-adv-x="1114" d="M78 645q0 670 510 670q205 0 326.5 -125t121.5 -367h-168q0 166 -75 252t-205 86q-336 0 -336 -469v-94q0 -469 336 -469q133 0 208.5 84.5t75.5 249.5h164q0 -242 -121 -364t-327 -122l-6 -45q67 -3 110 -32.5t43 -89.5q0 -45 -19 -77t-50.5 -47t-62 -21.5t-64.5 -6.5 q-79 0 -158 14v92h143q68 0 68 46q0 24 -14 34.5t-50 10.5h-63l20 131q-202 29 -304.5 195t-102.5 464z" />
<glyph unicode="&#xc8;" horiz-adv-x="1030" d="M131 0v1290h797v-149h-629v-404h547v-151h-547v-434h641v-152h-809zM295 1657l2 6h168l162 -248h-131z" />
<glyph unicode="&#xc9;" horiz-adv-x="1030" d="M131 0v1290h797v-149h-629v-404h547v-151h-547v-434h641v-152h-809zM403 1415l162 248h170l2 -6l-205 -242h-129z" />
<glyph unicode="&#xca;" horiz-adv-x="1030" d="M131 0v1290h797v-149h-629v-404h547v-151h-547v-434h641v-152h-809zM281 1405l161 256h148l160 -256h-152l-82 149l-86 -149h-149z" />
<glyph unicode="&#xcb;" horiz-adv-x="1030" d="M131 0v1290h797v-149h-629v-404h547v-151h-547v-434h641v-152h-809zM291 1485v178h166v-178h-166zM575 1485v178h164v-178h-164z" />
<glyph unicode="&#xcc;" horiz-adv-x="430" d="M-6 1657l2 6h170l162 -248h-129zM131 0v1290h168v-1290h-168z" />
<glyph unicode="&#xcd;" horiz-adv-x="430" d="M104 1415l162 248h166l2 -6l-201 -242h-129zM131 0v1290h168v-1290h-168z" />
<glyph unicode="&#xce;" horiz-adv-x="430" d="M-20 1405l163 256h146l160 -256h-148l-84 149l-86 -149h-151zM131 0v1290h168v-1290h-168z" />
<glyph unicode="&#xcf;" horiz-adv-x="430" d="M-8 1485v178h164v-178h-164zM131 0v1290h168v-1290h-168zM274 1485v178h164v-178h-164z" />
<glyph unicode="&#xd0;" horiz-adv-x="1114" d="M8 608v121h123v561h401q233 0 361.5 -159.5t128.5 -466.5q0 -326 -128.5 -495t-361.5 -169h-401v608h-123zM299 152h219q157 0 244.5 117.5t87.5 348.5v93q0 213 -87.5 321.5t-244.5 108.5h-219v-412h293v-121h-293v-456z" />
<glyph unicode="&#xd1;" horiz-adv-x="1114" d="M131 0v1290h143l480 -811q14 -22 34.5 -65t33.5 -75l14 -32l4 2q-4 129 -4 170v811h145v-1290h-135l-484 821q-15 24 -35.5 68t-34.5 76l-13 32l-7 -2q9 -121 9 -174v-821h-150zM283 1468q0 46 15.5 88.5t53 74.5t90.5 32q42 0 111 -28.5t104 -28.5q58 0 66 57h111 q0 -74 -41 -134.5t-119 -60.5q-44 0 -113 29t-104 29q-58 0 -66 -58h-108z" />
<glyph unicode="&#xd2;" horiz-adv-x="1202" d="M92 645q0 332 133 501t375 169q243 0 376.5 -169t133.5 -501q0 -329 -134 -498.5t-376 -169.5t-375 169.5t-133 498.5zM266 598q0 -232 87.5 -350.5t246.5 -118.5t247.5 118.5t88.5 350.5v94q0 232 -88.5 350.5t-247.5 118.5t-246.5 -118.5t-87.5 -350.5v-94zM381 1657v6 h170l162 -248h-129z" />
<glyph unicode="&#xd3;" horiz-adv-x="1202" d="M92 645q0 332 133 501t375 169q243 0 376.5 -169t133.5 -501q0 -329 -134 -498.5t-376 -169.5t-375 169.5t-133 498.5zM266 598q0 -232 87.5 -350.5t246.5 -118.5t247.5 118.5t88.5 350.5v94q0 232 -88.5 350.5t-247.5 118.5t-246.5 -118.5t-87.5 -350.5v-94zM489 1415 l162 248h168l2 -6l-200 -242h-132z" />
<glyph unicode="&#xd4;" horiz-adv-x="1202" d="M92 645q0 332 133 501t375 169q243 0 376.5 -169t133.5 -501q0 -329 -134 -498.5t-376 -169.5t-375 169.5t-133 498.5zM266 598q0 -232 87.5 -350.5t246.5 -118.5t247.5 118.5t88.5 350.5v94q0 232 -88.5 350.5t-247.5 118.5t-246.5 -118.5t-87.5 -350.5v-94zM367 1405 l161 256h148l160 -256h-150l-84 149l-84 -149h-151z" />
<glyph unicode="&#xd5;" horiz-adv-x="1202" d="M92 645q0 332 133 501t375 169q243 0 376.5 -169t133.5 -501q0 -329 -134 -498.5t-376 -169.5t-375 169.5t-133 498.5zM266 598q0 -232 87.5 -350.5t246.5 -118.5t247.5 118.5t88.5 350.5v94q0 232 -88.5 350.5t-247.5 118.5t-246.5 -118.5t-87.5 -350.5v-94zM326 1468 q0 46 15.5 88.5t53 74.5t90.5 32q42 0 111.5 -28.5t105.5 -28.5q28 0 44 12.5t20 44.5h108q0 -75 -40 -135t-119 -60q-41 0 -110 29t-107 29q-56 0 -64 -58h-108z" />
<glyph unicode="&#xd6;" horiz-adv-x="1202" d="M92 645q0 332 133 501t375 169q243 0 376.5 -169t133.5 -501q0 -329 -134 -498.5t-376 -169.5t-375 169.5t-133 498.5zM266 598q0 -232 87.5 -350.5t246.5 -118.5t247.5 118.5t88.5 350.5v94q0 232 -88.5 350.5t-247.5 118.5t-246.5 -118.5t-87.5 -350.5v-94zM379 1485 v178h164v-178h-164zM659 1485v178h164v-178h-164z" />
<glyph unicode="&#xd7;" horiz-adv-x="901" d="M72 197l288 282l-288 287l102 111l291 -285l289 285l102 -111l-287 -287l287 -282l-102 -111l-289 281l-291 -281z" />
<glyph unicode="&#xd8;" horiz-adv-x="1202" d="M92 645q0 332 133 501t375 169q175 0 301 -94l88 141h121l-137 -215q137 -176 137 -502q0 -329 -134 -498.5t-376 -169.5q-177 0 -299 93l-86 -140h-121l133 213q-135 170 -135 502zM266 598q0 -189 58 -299l489 780q-85 82 -213 82q-159 0 -246.5 -118.5t-87.5 -350.5 v-94zM387 209q83 -80 213 -80q159 0 247.5 118.5t88.5 350.5v94q0 186 -59 301z" />
<glyph unicode="&#xd9;" horiz-adv-x="1114" d="M131 420v870h168v-878q0 -137 67.5 -210t190.5 -73q124 0 192 73t68 210v878h164v-870q0 -215 -111.5 -329t-312.5 -114q-202 0 -314 113.5t-112 329.5zM334 1657l2 6h174l160 -248h-129z" />
<glyph unicode="&#xda;" horiz-adv-x="1114" d="M131 420v870h168v-878q0 -137 67.5 -210t190.5 -73q124 0 192 73t68 210v878h164v-870q0 -215 -111.5 -329t-312.5 -114q-202 0 -314 113.5t-112 329.5zM444 1415l162 248h170l2 -6l-200 -242h-134z" />
<glyph unicode="&#xdb;" horiz-adv-x="1114" d="M131 420v870h168v-878q0 -137 67.5 -210t190.5 -73q124 0 192 73t68 210v878h164v-870q0 -215 -111.5 -329t-312.5 -114q-202 0 -314 113.5t-112 329.5zM322 1405l161 256h148l162 -256h-152l-80 149l-88 -149h-151z" />
<glyph unicode="&#xdc;" horiz-adv-x="1114" d="M131 420v870h168v-878q0 -137 67.5 -210t190.5 -73q124 0 192 73t68 210v878h164v-870q0 -215 -111.5 -329t-312.5 -114q-202 0 -314 113.5t-112 329.5zM332 1485v178h164v-178h-164zM616 1485v178h166v-178h-166z" />
<glyph unicode="&#xdd;" horiz-adv-x="1030" d="M14 1290h185l327 -598h6l322 598h160l-416 -755v-535h-166v535zM403 1415l162 248h170l2 -6l-205 -242h-129z" />
<glyph unicode="&#xde;" horiz-adv-x="1030" d="M131 0v1290h168v-256h293q188 0 287.5 -101.5t99.5 -275.5q0 -172 -104 -276.5t-283 -104.5h-293v-276h-168zM299 428h289q99 0 158 63t59 166q0 107 -56 167.5t-161 60.5h-289v-457z" />
<glyph unicode="&#xdf;" horiz-adv-x="944" d="M94 0v971q0 108 29.5 188.5t82.5 129t121.5 72t151.5 23.5q156 0 255.5 -95t99.5 -259q0 -92 -51.5 -173.5t-129.5 -113.5v-6q95 -35 156 -130t61 -204q0 -180 -107.5 -291.5t-268.5 -111.5h-140v139h125q97 0 165.5 78.5t68.5 188.5q0 103 -68.5 177t-165.5 74h-125v140 h111q86 0 147.5 67.5t61.5 161.5q0 101 -53.5 160t-151.5 59q-103 0 -161 -68.5t-58 -201.5v-975h-156z" />
<glyph unicode="&#xe0;" d="M63 256q0 80 25 139t67.5 95.5t108.5 59t137.5 30.5t163.5 8v127q0 78 -33.5 118.5t-121.5 40.5q-82 0 -118 -44t-36 -109v-25h-152q-2 10 -2 43q0 130 87.5 202.5t230.5 72.5q149 0 225 -72t76 -205v-557q0 -32 14.5 -48.5t34.5 -16.5h64v-107q-40 -22 -103 -22 q-61 0 -102.5 32.5t-53.5 87.5h-10q-38 -62 -100.5 -95.5t-140.5 -33.5q-34 0 -65.5 5.5t-68.5 24t-64 47.5t-45 81t-18 121zM201 1354l2 8h168l161 -250h-129zM225 266q0 -82 33 -116.5t102 -34.5q81 0 143 65t62 180v89q-82 0 -139 -7t-105 -26.5t-72 -56.5t-24 -93z" />
<glyph unicode="&#xe1;" d="M63 256q0 80 25 139t67.5 95.5t108.5 59t137.5 30.5t163.5 8v127q0 78 -33.5 118.5t-121.5 40.5q-82 0 -118 -44t-36 -109v-25h-152q-2 10 -2 43q0 130 87.5 202.5t230.5 72.5q149 0 225 -72t76 -205v-557q0 -32 14.5 -48.5t34.5 -16.5h64v-107q-40 -22 -103 -22 q-61 0 -102.5 32.5t-53.5 87.5h-10q-38 -62 -100.5 -95.5t-140.5 -33.5q-34 0 -65.5 5.5t-68.5 24t-64 47.5t-45 81t-18 121zM225 266q0 -82 33 -116.5t102 -34.5q81 0 143 65t62 180v89q-82 0 -139 -7t-105 -26.5t-72 -56.5t-24 -93zM309 1112l162 250h170v-8l-203 -242 h-129z" />
<glyph unicode="&#xe2;" d="M63 256q0 80 25 139t67.5 95.5t108.5 59t137.5 30.5t163.5 8v127q0 78 -33.5 118.5t-121.5 40.5q-82 0 -118 -44t-36 -109v-25h-152q-2 10 -2 43q0 130 87.5 202.5t230.5 72.5q149 0 225 -72t76 -205v-557q0 -32 14.5 -48.5t34.5 -16.5h64v-107q-40 -22 -103 -22 q-61 0 -102.5 32.5t-53.5 87.5h-10q-38 -62 -100.5 -95.5t-140.5 -33.5q-34 0 -65.5 5.5t-68.5 24t-64 47.5t-45 81t-18 121zM197 1106l159 254h148l160 -254h-150l-84 149l-82 -149h-151zM225 266q0 -82 33 -116.5t102 -34.5q81 0 143 65t62 180v89q-82 0 -139 -7 t-105 -26.5t-72 -56.5t-24 -93z" />
<glyph unicode="&#xe3;" d="M63 256q0 80 25 139t67.5 95.5t108.5 59t137.5 30.5t163.5 8v127q0 78 -33.5 118.5t-121.5 40.5q-82 0 -118 -44t-36 -109v-25h-152q-2 10 -2 43q0 130 87.5 202.5t230.5 72.5q149 0 225 -72t76 -205v-557q0 -32 14.5 -48.5t34.5 -16.5h64v-107q-40 -22 -103 -22 q-61 0 -102.5 32.5t-53.5 87.5h-10q-38 -62 -100.5 -95.5t-140.5 -33.5q-34 0 -65.5 5.5t-68.5 24t-64 47.5t-45 81t-18 121zM154 1165q0 76 41.5 136.5t119.5 60.5q41 0 110.5 -29.5t104.5 -29.5q59 0 64 59h111q0 -76 -41.5 -136.5t-120.5 -60.5q-41 0 -110 30t-105 30 q-59 0 -64 -60h-110zM225 266q0 -82 33 -116.5t102 -34.5q81 0 143 65t62 180v89q-82 0 -139 -7t-105 -26.5t-72 -56.5t-24 -93z" />
<glyph unicode="&#xe4;" d="M63 256q0 80 25 139t67.5 95.5t108.5 59t137.5 30.5t163.5 8v127q0 78 -33.5 118.5t-121.5 40.5q-82 0 -118 -44t-36 -109v-25h-152q-2 10 -2 43q0 130 87.5 202.5t230.5 72.5q149 0 225 -72t76 -205v-557q0 -32 14.5 -48.5t34.5 -16.5h64v-107q-40 -22 -103 -22 q-61 0 -102.5 32.5t-53.5 87.5h-10q-38 -62 -100.5 -95.5t-140.5 -33.5q-34 0 -65.5 5.5t-68.5 24t-64 47.5t-45 81t-18 121zM205 1182v180h164v-180h-164zM225 266q0 -82 33 -116.5t102 -34.5q81 0 143 65t62 180v89q-82 0 -139 -7t-105 -26.5t-72 -56.5t-24 -93zM487 1182 v180h166v-180h-166z" />
<glyph unicode="&#xe5;" d="M63 256q0 80 25 139t67.5 95.5t108.5 59t137.5 30.5t163.5 8v127q0 78 -33.5 118.5t-121.5 40.5q-82 0 -118 -44t-36 -109v-25h-152q-2 10 -2 43q0 130 87.5 202.5t230.5 72.5q149 0 225 -72t76 -205v-557q0 -32 14.5 -48.5t34.5 -16.5h64v-107q-40 -22 -103 -22 q-61 0 -102.5 32.5t-53.5 87.5h-10q-38 -62 -100.5 -95.5t-140.5 -33.5q-34 0 -65.5 5.5t-68.5 24t-64 47.5t-45 81t-18 121zM225 266q0 -82 33 -116.5t102 -34.5q81 0 143 65t62 180v89q-82 0 -139 -7t-105 -26.5t-72 -56.5t-24 -93zM250 1241q0 74 52.5 127t127.5 53 q74 0 126 -53.5t52 -126.5q0 -76 -52 -129t-126 -53t-127 52.5t-53 129.5zM332 1241q0 -40 29 -69t69 -29q37 0 66.5 29.5t29.5 68.5q0 38 -29.5 66t-66.5 28q-40 0 -69 -28t-29 -66z" />
<glyph unicode="&#xe6;" horiz-adv-x="1372" d="M74 256q0 80 25 139t68 95.5t108.5 58.5t137.5 30.5t165 8.5v127q0 77 -35 118t-123 41q-81 0 -116.5 -44.5t-35.5 -108.5v-25h-153q-2 10 -2 43q0 130 87.5 202.5t229.5 72.5q182 0 256 -113q91 113 264 113q165 0 244.5 -110.5t79.5 -356.5v-98h-535q0 -172 52.5 -253 t162.5 -81q74 0 121 60.5t47 160.5h152q0 -164 -89 -261.5t-235 -97.5q-213 0 -301 150q-117 -150 -284 -150q-42 0 -78 5.5t-77 23.5t-69.5 47.5t-47.5 81.5t-19 121zM236 266q0 -82 33 -116.5t102 -34.5q81 0 144 60.5t63 168.5v105q-83 0 -140.5 -7t-105.5 -26.5 t-72 -56.5t-24 -93zM739 588h373q0 141 -41 213.5t-121 72.5q-102 0 -151 -70t-60 -216z" />
<glyph unicode="&#xe7;" horiz-adv-x="770" d="M68 494q0 268 82.5 394t257.5 126q157 0 229 -98t72 -291h-160q0 133 -30.5 191t-110.5 58q-92 0 -135.5 -85.5t-43.5 -258.5v-69q0 -174 43 -260t136 -86q81 0 115 62t34 190h152q0 -79 -16.5 -146.5t-50.5 -122t-92 -87t-134 -34.5l-4 -45q67 -3 109 -32.5t42 -89.5 q0 -45 -19 -77t-50.5 -47t-62 -21.5t-64.5 -6.5q-79 0 -158 14v92h143q68 0 68 46q0 24 -14 34.5t-50 10.5h-61l20 135q-127 29 -187 152.5t-60 351.5z" />
<glyph unicode="&#xe8;" d="M78 494q0 266 92.5 393t280.5 127q167 0 247 -110t80 -357v-98h-536q2 -172 54.5 -253t162.5 -81q73 0 119.5 60.5t46.5 160.5h153q0 -164 -89.5 -261.5t-233.5 -97.5q-190 0 -283.5 123.5t-93.5 393.5zM229 1354l2 8h170l162 -250h-131zM244 588h372q0 286 -165 286 q-99 0 -148.5 -70.5t-58.5 -215.5z" />
<glyph unicode="&#xe9;" d="M78 494q0 266 92.5 393t280.5 127q167 0 247 -110t80 -357v-98h-536q2 -172 54.5 -253t162.5 -81q73 0 119.5 60.5t46.5 160.5h153q0 -164 -89.5 -261.5t-233.5 -97.5q-190 0 -283.5 123.5t-93.5 393.5zM244 588h372q0 286 -165 286q-99 0 -148.5 -70.5t-58.5 -215.5z M338 1112l162 250h172l2 -8l-203 -242h-133z" />
<glyph unicode="&#xea;" d="M78 494q0 266 92.5 393t280.5 127q167 0 247 -110t80 -357v-98h-536q2 -172 54.5 -253t162.5 -81q73 0 119.5 60.5t46.5 160.5h153q0 -164 -89.5 -261.5t-233.5 -97.5q-190 0 -283.5 123.5t-93.5 393.5zM197 1106l159 254h148l160 -254h-150l-84 149l-82 -149h-151z M244 588h372q0 286 -165 286q-99 0 -148.5 -70.5t-58.5 -215.5z" />
<glyph unicode="&#xeb;" d="M78 494q0 266 92.5 393t280.5 127q167 0 247 -110t80 -357v-98h-536q2 -172 54.5 -253t162.5 -81q73 0 119.5 60.5t46.5 160.5h153q0 -164 -89.5 -261.5t-233.5 -97.5q-190 0 -283.5 123.5t-93.5 393.5zM205 1182v180h164v-180h-164zM244 588h372q0 286 -165 286 q-99 0 -148.5 -70.5t-58.5 -215.5zM487 1182v180h166v-180h-166z" />
<glyph unicode="&#xec;" horiz-adv-x="430" d="M-6 1354l2 8h170l162 -250h-129zM139 0v991h152v-991h-152z" />
<glyph unicode="&#xed;" horiz-adv-x="430" d="M104 1112l162 250h166l2 -8l-201 -242h-129zM139 0v991h152v-991h-152z" />
<glyph unicode="&#xee;" horiz-adv-x="430" d="M-20 1106l163 254h146l160 -254h-148l-84 149l-86 -149h-151zM139 0v991h152v-991h-152z" />
<glyph unicode="&#xef;" horiz-adv-x="430" d="M-8 1182v180h164v-180h-164zM139 0v991h152v-991h-152zM274 1182v180h164v-180h-164z" />
<glyph unicode="&#xf0;" d="M74 494q0 264 91 392t245 128q36 0 92 -23q-35 67 -105 158l-223 -21v113l135 14q-10 10 -40.5 45t-49.5 54l4 8h166l86 -92l219 20v-114l-133 -13q223 -305 223 -669q0 -517 -354 -517q-356 0 -356 517zM236 461q0 -346 194 -346q193 0 193 346v69q0 169 -49.5 256.5 t-143.5 87.5q-194 0 -194 -344v-69z" />
<glyph unicode="&#xf1;" d="M113 0v991h116l23 -117h10q79 140 238 140q118 0 181.5 -71t63.5 -230v-713h-153v702q0 97 -36 134.5t-105 37.5q-76 0 -129.5 -73t-53.5 -197v-604h-155zM154 1165q0 76 41.5 136.5t119.5 60.5q41 0 110.5 -29.5t104.5 -29.5q59 0 64 59h111q0 -76 -41.5 -136.5 t-120.5 -60.5q-41 0 -110 30t-105 30q-59 0 -64 -60h-110z" />
<glyph unicode="&#xf2;" d="M74 494q0 520 356 520q354 0 354 -520q0 -517 -354 -517q-356 0 -356 517zM207 1354l2 8h172l162 -250h-129zM236 461q0 -346 194 -346q193 0 193 346v69q0 344 -193 344q-194 0 -194 -344v-69z" />
<glyph unicode="&#xf3;" d="M74 494q0 520 356 520q354 0 354 -520q0 -517 -354 -517q-356 0 -356 517zM236 461q0 -346 194 -346q193 0 193 346v69q0 344 -193 344q-194 0 -194 -344v-69zM317 1112l162 250h168l2 -8l-203 -242h-129z" />
<glyph unicode="&#xf4;" d="M74 494q0 520 356 520q354 0 354 -520q0 -517 -354 -517q-356 0 -356 517zM197 1106l159 254h148l160 -254h-150l-84 149l-82 -149h-151zM236 461q0 -346 194 -346q193 0 193 346v69q0 344 -193 344q-194 0 -194 -344v-69z" />
<glyph unicode="&#xf5;" d="M74 494q0 520 356 520q354 0 354 -520q0 -517 -354 -517q-356 0 -356 517zM154 1165q0 76 41.5 136.5t119.5 60.5q41 0 110.5 -29.5t104.5 -29.5q59 0 64 59h111q0 -76 -41.5 -136.5t-120.5 -60.5q-41 0 -110 30t-105 30q-59 0 -64 -60h-110zM236 461q0 -346 194 -346 q193 0 193 346v69q0 344 -193 344q-194 0 -194 -344v-69z" />
<glyph unicode="&#xf6;" d="M74 494q0 520 356 520q354 0 354 -520q0 -517 -354 -517q-356 0 -356 517zM205 1182v180h164v-180h-164zM236 461q0 -346 194 -346q193 0 193 346v69q0 344 -193 344q-194 0 -194 -344v-69zM487 1182v180h166v-180h-166z" />
<glyph unicode="&#xf7;" horiz-adv-x="1032" d="M82 401v160h868v-160h-868zM436 96v170h158v-170h-158zM436 694v172h158v-172h-158z" />
<glyph unicode="&#xf8;" horiz-adv-x="944" d="M117 -59l88 163q-88 130 -88 390q0 266 88.5 393t265.5 127q121 0 199 -60l53 97h100l-88 -164q88 -125 88 -393q0 -517 -352 -517q-123 0 -201 60l-51 -96h-102zM279 461q0 -125 20 -189l295 547q-46 55 -123 55q-192 0 -192 -344v-69zM348 170q46 -55 123 -55 q191 0 191 346v69q0 114 -21 185z" />
<glyph unicode="&#xf9;" d="M113 276v715h155v-704q0 -96 36 -134t104 -38q76 0 130 73.5t54 196.5v606h153v-991h-116l-21 115h-12q-75 -138 -238 -138q-118 0 -181.5 70.5t-63.5 228.5zM207 1354l2 8h172l162 -250h-129z" />
<glyph unicode="&#xfa;" d="M113 276v715h155v-704q0 -96 36 -134t104 -38q76 0 130 73.5t54 196.5v606h153v-991h-116l-21 115h-12q-75 -138 -238 -138q-118 0 -181.5 70.5t-63.5 228.5zM317 1112l162 250h168l2 -8l-203 -242h-129z" />
<glyph unicode="&#xfb;" d="M113 276v715h155v-704q0 -96 36 -134t104 -38q76 0 130 73.5t54 196.5v606h153v-991h-116l-21 115h-12q-75 -138 -238 -138q-118 0 -181.5 70.5t-63.5 228.5zM197 1106l159 254h148l160 -254h-150l-84 149l-82 -149h-151z" />
<glyph unicode="&#xfc;" d="M113 276v715h155v-704q0 -96 36 -134t104 -38q76 0 130 73.5t54 196.5v606h153v-991h-116l-21 115h-12q-75 -138 -238 -138q-118 0 -181.5 70.5t-63.5 228.5zM205 1182v180h164v-180h-164zM487 1182v180h166v-180h-166z" />
<glyph unicode="&#xfd;" horiz-adv-x="770" d="M18 991h170l144 -510q14 -45 38.5 -132t37.5 -128h6q11 47 32.5 132.5t30.5 125.5l121 512h156l-252 -940q-23 -87 -50 -154t-65.5 -123t-90 -86t-114.5 -30q-64 0 -110 14v109h53q149 0 197 219zM274 1112l160 250h170l2 -8l-200 -242h-132z" />
<glyph unicode="&#xfe;" d="M113 -326v1688h155v-459l6 -2q31 52 84.5 82.5t118.5 30.5q145 0 226 -128.5t81 -391.5q0 -256 -83 -386.5t-214 -130.5q-72 0 -128.5 29.5t-82.5 81.5h-8v-414h-155zM268 461q0 -346 176 -346q91 0 135 81.5t44 264.5v69q0 182 -44 263t-135 81q-176 0 -176 -344v-69z " />
<glyph unicode="&#xff;" horiz-adv-x="770" d="M18 991h170l144 -510q14 -45 38.5 -132t37.5 -128h6q11 47 32.5 132.5t30.5 125.5l121 512h156l-252 -940q-23 -87 -50 -154t-65.5 -123t-90 -86t-114.5 -30q-64 0 -110 14v109h53q149 0 197 219zM162 1182v180h164v-180h-164zM444 1182v180h164v-180h-164z" />
<glyph unicode="&#x152;" horiz-adv-x="1544" d="M92 645q0 332 110 501t312 169q181 0 287 -152v127h665v-149h-501v-404h415v-151h-415v-434h512v-152h-676v127q-103 -150 -287 -150q-201 0 -311.5 169.5t-110.5 498.5zM266 598q0 -232 69.5 -350.5t196.5 -118.5t198 118.5t71 350.5v94q0 232 -71 350.5t-198 118.5 t-196.5 -118.5t-69.5 -350.5v-94z" />
<glyph unicode="&#x153;" horiz-adv-x="1456" d="M100 494q0 265 89 392.5t266 127.5q187 0 274 -146q93 146 293 146q166 0 246 -110.5t80 -356.5v-98h-537q1 -171 54.5 -252.5t162.5 -81.5q74 0 120 60.5t46 160.5h154q0 -164 -89 -261.5t-235 -97.5q-207 0 -295 144q-84 -144 -274 -144q-355 0 -355 517zM262 461 q0 -346 193 -346q190 0 190 346v69q0 344 -190 344q-193 0 -193 -344v-69zM813 588h373q0 140 -42 213t-122 73q-100 0 -149 -70t-60 -216z" />
<glyph unicode="&#x178;" horiz-adv-x="1030" d="M14 1290h185l327 -598h6l322 598h160l-416 -755v-535h-166v535zM291 1485v178h166v-178h-166zM575 1485v178h164v-178h-164z" />
<glyph unicode="&#x2c6;" horiz-adv-x="514" d="M18 1106l162 254h148l159 -254h-151l-82 149l-84 -149h-152z" />
<glyph unicode="&#x2dc;" horiz-adv-x="514" d="M-18 1165q0 76 40.5 136.5t118.5 60.5q41 0 110 -29.5t107 -29.5q56 0 64 59h108q0 -76 -40.5 -136.5t-118.5 -60.5q-42 0 -111.5 30t-105.5 30q-56 0 -64 -60h-108z" />
<glyph unicode="&#x2000;" horiz-adv-x="861" />
<glyph unicode="&#x2001;" horiz-adv-x="1722" />
<glyph unicode="&#x2002;" horiz-adv-x="861" />
<glyph unicode="&#x2003;" horiz-adv-x="1722" />
<glyph unicode="&#x2004;" horiz-adv-x="574" />
<glyph unicode="&#x2005;" horiz-adv-x="430" />
<glyph unicode="&#x2006;" horiz-adv-x="287" />
<glyph unicode="&#x2007;" horiz-adv-x="287" />
<glyph unicode="&#x2008;" horiz-adv-x="215" />
<glyph unicode="&#x2009;" horiz-adv-x="344" />
<glyph unicode="&#x200a;" horiz-adv-x="95" />
<glyph unicode="&#x2010;" horiz-adv-x="514" d="M18 416v184h476v-184h-476z" />
<glyph unicode="&#x2011;" horiz-adv-x="514" d="M18 416v184h476v-184h-476z" />
<glyph unicode="&#x2012;" horiz-adv-x="514" d="M18 416v184h476v-184h-476z" />
<glyph unicode="&#x2013;" d="M0 438v142h856v-142h-856z" />
<glyph unicode="&#x2014;" horiz-adv-x="1544" d="M0 438v142h1544v-142h-1544z" />
<glyph unicode="&#x2018;" horiz-adv-x="342" d="M76 854v188l92 248h98l-76 -231h76v-205h-190z" />
<glyph unicode="&#x2019;" horiz-adv-x="342" d="M76 854l78 233h-78v203h190v-184l-92 -252h-98z" />
<glyph unicode="&#x201a;" horiz-adv-x="342" d="M70 0v203h188v-187l-90 -249h-98l75 233h-75z" />
<glyph unicode="&#x201c;" horiz-adv-x="514" d="M41 854v188l90 248h98l-75 -231h75v-205h-188zM281 854v188l90 248h98l-76 -231h76v-205h-188z" />
<glyph unicode="&#x201d;" horiz-adv-x="514" d="M45 854l76 233h-76v203h188v-184l-90 -252h-98zM283 854l77 233h-77v203h190v-184l-92 -252h-98z" />
<glyph unicode="&#x201e;" horiz-adv-x="514" d="M45 0v203h188v-187l-90 -249h-98l76 233h-76zM283 0v203h190v-187l-92 -249h-98l77 233h-77z" />
<glyph unicode="&#x2022;" horiz-adv-x="540" d="M63 647q0 86 60 147.5t145 61.5q86 0 147.5 -61.5t61.5 -147.5t-61.5 -148.5t-147.5 -62.5q-85 0 -145 62.5t-60 148.5z" />
<glyph unicode="&#x2026;" horiz-adv-x="1544" d="M164 0v203h188v-203h-188zM678 0v203h188v-203h-188zM1190 0v203h188v-203h-188z" />
<glyph unicode="&#x202f;" horiz-adv-x="344" />
<glyph unicode="&#x2039;" horiz-adv-x="514" d="M55 614l264 377h136l-213 -377l213 -378h-136z" />
<glyph unicode="&#x203a;" horiz-adv-x="514" d="M59 236l213 378l-213 377h136l266 -377l-266 -378h-136z" />
<glyph unicode="&#x205f;" horiz-adv-x="430" />
<glyph unicode="&#x20ac;" d="M37 459v121h104q-2 20 -2 65q0 46 2 66h-104v125h117q40 230 175.5 354.5t348.5 124.5q63 0 125 -21v-133q-50 15 -103 15q-141 0 -244.5 -86t-140.5 -254h379v-125h-395q-2 -20 -2 -66q0 -45 2 -65h395v-121h-379q37 -172 140 -258t245 -86q45 0 103 14v-133 q-78 -19 -125 -19q-213 0 -348.5 125.5t-175.5 356.5h-117z" />
<glyph unicode="&#x2122;" horiz-adv-x="1544" d="M152 1200v90h507v-90h-202v-668h-99v668h-206zM741 530v760h150l158 -606h8l157 606h148v-760h-98v633h-7l-167 -633h-89l-163 633h-7v-633h-90z" />
<glyph unicode="&#x25fc;" horiz-adv-x="993" d="M0 0v993h993v-993h-993z" />
</font>
</defs>
</svg>
